<svg width="16" height="17" viewBox="0 0 16 17" fill="none" xmlns="http://www.w3.org/2000/svg">
<path d="M14.6667 11.2935C14.6667 13.7202 13.22 15.1668 10.7933 15.1668H10C9.63334 15.1668 9.33334 14.8668 9.33334 14.5002V10.6535C9.33334 10.4735 9.48 10.3202 9.66 10.3202L10.8333 10.3002C10.9267 10.2935 11.0067 10.2268 11.0267 10.1335L11.26 8.86017C11.28 8.74017 11.1867 8.62683 11.06 8.62683L9.64 8.64683C9.45334 8.64683 9.30669 8.50017 9.30002 8.32017L9.27335 6.68683C9.27335 6.58016 9.36 6.48684 9.47334 6.48684L11.0733 6.46016C11.1867 6.46016 11.2733 6.37351 11.2733 6.26017L11.2467 4.66016C11.2467 4.54682 11.16 4.46016 11.0467 4.46016L9.24667 4.48684C8.14001 4.50684 7.26002 5.4135 7.28002 6.52016L7.31334 8.3535C7.32001 8.54016 7.17335 8.68684 6.98668 8.6935L6.18668 8.70683C6.07334 8.70683 5.98668 8.79349 5.98668 8.90682L6.00668 10.1735C6.00668 10.2868 6.09334 10.3735 6.20668 10.3735L7.00668 10.3602C7.19335 10.3602 7.34 10.5068 7.34667 10.6868L7.40667 14.4868C7.41333 14.8602 7.11333 15.1668 6.74 15.1668H5.20668C2.78001 15.1668 1.33334 13.7202 1.33334 11.2868V5.70683C1.33334 3.28016 2.78001 1.8335 5.20668 1.8335H10.7933C13.22 1.8335 14.6667 3.28016 14.6667 5.70683V11.2935V11.2935Z" fill="#FFFFFE"/>
</svg>
