<svg width="20" height="21" viewBox="0 0 20 21" fill="none" xmlns="http://www.w3.org/2000/svg">
<g clip-path="url(#clip0_1_1883)">
<path d="M6.37499 17.925C6.34999 17.925 6.31665 17.9417 6.29165 17.9417C4.67499 17.1417 3.35832 15.8167 2.54999 14.2C2.54999 14.175 2.56665 14.1417 2.56665 14.1167C3.58332 14.4167 4.63332 14.6417 5.67499 14.8167C5.85832 15.8667 6.07499 16.9084 6.37499 17.925Z" fill="#072B55"/>
<path d="M17.45 14.2084C16.625 15.8667 15.25 17.2084 13.575 18.0167C13.8917 16.9584 14.1583 15.8917 14.3333 14.8167C15.3833 14.6417 16.4167 14.4167 17.4333 14.1167C17.425 14.15 17.45 14.1834 17.45 14.2084Z" fill="#072B55"/>
<path d="M17.5167 6.92507C16.4667 6.6084 15.4083 6.35007 14.3333 6.16673C14.1583 5.09173 13.9 4.02507 13.575 2.9834C15.3 3.8084 16.6917 5.20007 17.5167 6.92507Z" fill="#072B55"/>
<path d="M6.375 3.0748C6.075 4.09147 5.85834 5.1248 5.68334 6.1748C4.60834 6.34147 3.54167 6.60814 2.48334 6.9248C3.29167 5.2498 4.63334 3.8748 6.29167 3.0498C6.31667 3.0498 6.35 3.0748 6.375 3.0748Z" fill="#072B55"/>
<path d="M12.9083 5.9915C10.975 5.77484 9.02501 5.77484 7.09167 5.9915C7.30001 4.84984 7.56667 3.70817 7.94167 2.60817C7.95834 2.5415 7.95001 2.4915 7.95834 2.42484C8.61667 2.2665 9.29167 2.1665 10 2.1665C10.7 2.1665 11.3833 2.2665 12.0333 2.42484C12.0417 2.4915 12.0417 2.5415 12.0583 2.60817C12.4333 3.7165 12.7 4.84984 12.9083 5.9915Z" fill="#072B55"/>
<path d="M5.49166 13.4085C4.34166 13.2001 3.20832 12.9335 2.10832 12.5585C2.04166 12.5418 1.99166 12.5501 1.92499 12.5418C1.76666 11.8835 1.66666 11.2085 1.66666 10.5001C1.66666 9.80013 1.76666 9.1168 1.92499 8.4668C1.99166 8.45846 2.04166 8.45846 2.10832 8.4418C3.21666 8.07513 4.34166 7.80013 5.49166 7.5918C5.28332 9.52513 5.28332 11.4751 5.49166 13.4085Z" fill="#072B55"/>
<path d="M18.3333 10.5001C18.3333 11.2085 18.2333 11.8835 18.075 12.5418C18.0083 12.5501 17.9583 12.5418 17.8917 12.5585C16.7833 12.9251 15.65 13.2001 14.5083 13.4085C14.725 11.4751 14.725 9.52513 14.5083 7.5918C15.65 7.80013 16.7917 8.0668 17.8917 8.4418C17.9583 8.45846 18.0083 8.4668 18.075 8.4668C18.2333 9.12513 18.3333 9.80013 18.3333 10.5001Z" fill="#072B55"/>
<path d="M12.9083 15.0083C12.7 16.1583 12.4333 17.2916 12.0583 18.3916C12.0417 18.4583 12.0417 18.5083 12.0333 18.575C11.3833 18.7333 10.7 18.8333 10 18.8333C9.29167 18.8333 8.61667 18.7333 7.95834 18.575C7.95001 18.5083 7.95834 18.4583 7.94167 18.3916C7.57501 17.2833 7.30001 16.1583 7.09167 15.0083C8.05834 15.1166 9.02501 15.1916 10 15.1916C10.975 15.1916 11.95 15.1166 12.9083 15.0083Z" fill="#072B55"/>
<path d="M13.1361 13.6359C11.0519 13.8989 8.94813 13.8989 6.86388 13.6359C6.60092 11.5517 6.60092 9.44797 6.86388 7.36373C8.94813 7.10076 11.0519 7.10076 13.1361 7.36373C13.3991 9.44797 13.3991 11.5517 13.1361 13.6359Z" fill="#072B55"/>
</g>
<defs>
<clipPath id="clip0_1_1883">
<rect width="20" height="20" fill="white" transform="translate(0 0.5)"/>
</clipPath>
</defs>
</svg>
