<svg width="16" height="17" viewBox="0 0 16 17" fill="none" xmlns="http://www.w3.org/2000/svg">
<path d="M10.7933 1.8335H5.20668C2.78001 1.8335 1.33334 3.28016 1.33334 5.70683V11.2868C1.33334 13.7202 2.78001 15.1668 5.20668 15.1668H10.7867C13.2133 15.1668 14.66 13.7202 14.66 11.2935V5.70683C14.6667 3.28016 13.22 1.8335 10.7933 1.8335ZM8.00001 11.0868C6.57334 11.0868 5.41334 9.92683 5.41334 8.50016C5.41334 7.0735 6.57334 5.9135 8.00001 5.9135C9.42668 5.9135 10.5867 7.0735 10.5867 8.50016C10.5867 9.92683 9.42668 11.0868 8.00001 11.0868ZM11.9467 5.08683C11.9133 5.16683 11.8667 5.24016 11.8067 5.30683C11.74 5.36683 11.6667 5.4135 11.5867 5.44683C11.5067 5.48016 11.42 5.50016 11.3333 5.50016C11.1533 5.50016 10.9867 5.4335 10.86 5.30683C10.8 5.24016 10.7533 5.16683 10.72 5.08683C10.6867 5.00683 10.6667 4.92016 10.6667 4.8335C10.6667 4.74683 10.6867 4.66016 10.72 4.58016C10.7533 4.4935 10.8 4.42683 10.86 4.36016C11.0133 4.20683 11.2467 4.1335 11.46 4.18016C11.5067 4.18683 11.5467 4.20016 11.5867 4.22016C11.6267 4.2335 11.6667 4.2535 11.7067 4.28016C11.74 4.30016 11.7733 4.3335 11.8067 4.36016C11.8667 4.42683 11.9133 4.4935 11.9467 4.58016C11.98 4.66016 12 4.74683 12 4.8335C12 4.92016 11.98 5.00683 11.9467 5.08683Z" fill="#FFFFFE"/>
</svg>
