<svg width="16" height="17" viewBox="0 0 16 17" fill="none" xmlns="http://www.w3.org/2000/svg">
<path d="M12.8809 4.20813C12.7797 4.1558 12.6811 4.09843 12.5856 4.03625C12.3079 3.85264 12.0533 3.6363 11.8272 3.39188C11.2616 2.74469 11.0503 2.08813 10.9725 1.62844H10.9756C10.9106 1.24688 10.9375 1 10.9416 1H8.36532V10.9619C8.36532 11.0956 8.36532 11.2278 8.35969 11.3584C8.35969 11.3747 8.35813 11.3897 8.35719 11.4072C8.35719 11.4144 8.35719 11.4219 8.35563 11.4294C8.35563 11.4312 8.35563 11.4331 8.35563 11.435C8.32847 11.7924 8.21389 12.1377 8.02198 12.4405C7.83006 12.7432 7.56668 12.9942 7.255 13.1713C6.93017 13.356 6.56278 13.453 6.18907 13.4525C4.98875 13.4525 4.01594 12.4738 4.01594 11.265C4.01594 10.0563 4.98875 9.0775 6.18907 9.0775C6.41628 9.07729 6.64209 9.11304 6.85813 9.18344L6.86125 6.56031C6.20543 6.4756 5.53917 6.52772 4.90449 6.71339C4.26982 6.89906 3.68052 7.21424 3.17375 7.63906C2.72971 8.02488 2.3564 8.48522 2.07063 8.99938C1.96188 9.18688 1.55157 9.94031 1.50188 11.1631C1.47063 11.8572 1.67907 12.5763 1.77844 12.8734V12.8797C1.84094 13.0547 2.08313 13.6519 2.47782 14.1553C2.79608 14.5591 3.17209 14.9139 3.59375 15.2081V15.2019L3.6 15.2081C4.84719 16.0556 6.23 16 6.23 16C6.46938 15.9903 7.27125 16 8.18188 15.5684C9.19188 15.09 9.76688 14.3772 9.76688 14.3772C10.1342 13.9513 10.4263 13.4659 10.6306 12.9419C10.8638 12.3291 10.9416 11.5941 10.9416 11.3003V6.01531C10.9728 6.03406 11.3891 6.30937 11.3891 6.30937C11.3891 6.30937 11.9888 6.69375 12.9244 6.94406C13.5956 7.12219 14.5 7.15969 14.5 7.15969V4.60219C14.1831 4.63656 13.5397 4.53656 12.8809 4.20813Z" fill="#FFFFFE"/>
</svg>
